<svg width="36" height="36" viewBox="0 0 36 36" fill="none" xmlns="http://www.w3.org/2000/svg">
<path d="M4.20539 29.5649H31.7945C33.6253 27.3716 34.9486 24.7432 35.583 21.861H0.41687C1.05131 24.7613 2.37457 27.3897 4.20539 29.5649Z" fill="#FFD400"/>
<path d="M31.8126 6.45319H4.18726C2.35645 8.64654 1.03318 11.2749 0.41687 14.1571H35.6012C34.9667 11.2749 33.6435 8.64654 31.8126 6.45319Z" fill="#FFD400"/>
<path d="M31.7946 29.5831H4.20544C7.4139 33.3897 12.1631 35.855 17.4925 36H18.5076C23.8369 35.855 28.5861 33.3897 31.7946 29.5831Z" fill="#231F20"/>
<path d="M4.18726 6.45317H31.8126C28.5498 2.55589 23.6737 0.0543807 18.1993 0H17.8005C12.3444 0.0543807 7.4501 2.55589 4.18726 6.45317Z" fill="#231F20"/>
<path d="M36 18.1088V17.9094C36 16.6224 35.855 15.3716 35.5831 14.1753H0.416918C0.145015 15.3716 0 16.6224 0 17.9094V18.1088C0 19.3958 0.145015 20.6647 0.416918 21.8792H35.5831C35.855 20.6466 36 19.3958 36 18.1088Z" fill="#231F20"/>
</svg>
